<svg id="_" data-name="ͼ" xmlns="http://www.w3.org/2000/svg" viewBox="0 0 236.11 164.35"><defs><style>.cls-1{fill:#030000;}.cls-1,.cls-2{fill-rule:evenodd;}.cls-2{fill:#0050a1;}</style></defs><title>EAGLENOS logo源文件AI</title><path class="cls-1" d="M388.3,454.67v-5.6h14.35c2.29,0,3.81-.22,4.57-.66a3.23,3.23,0,0,0,1.64-3,3.5,3.5,0,0,0-1.93-3.34,7.38,7.38,0,0,0-3.48-.61h-5.84c-3.54,0-6.1-.65-7.67-1.93a8.54,8.54,0,0,1-2.28-3.06,9.55,9.55,0,0,1-.82-4,10.18,10.18,0,0,1,1.93-6c1.25-1.76,3.26-2.79,6-3.11.94-.09,2.34-.14,4.19-.14h15.58v5.6H400.49a25.72,25.72,0,0,0-4.19.28c-1.41.35-2.12,1.42-2.12,3.21a3,3,0,0,0,1.79,3,10,10,0,0,0,3.95.56h5a18.58,18.58,0,0,1,5.74.66,7.32,7.32,0,0,1,4.61,3.95,12,12,0,0,1,1,4.85,10,10,0,0,1-1.32,5.13,7.59,7.59,0,0,1-5.5,3.86,37.82,37.82,0,0,1-5.42.28Z" transform="translate(-180.19 -290.51)"/><path class="cls-1" d="M369.85,423.09a20.26,20.26,0,0,1,8.29,1.6,11.09,11.09,0,0,1,5.88,6.45,23.64,23.64,0,0,1,1.32,8.29,20.16,20.16,0,0,1-1.6,8.33,11.5,11.5,0,0,1-6.22,5.88,19.51,19.51,0,0,1-7.15,1.22,20.28,20.28,0,0,1-9.22-2,11.07,11.07,0,0,1-5-5.18,19.23,19.23,0,0,1-1.74-8.57q0-9,4.47-12.8,3.77-3.19,11-3.25Zm0,5.27q-4.61,0-6.59,3-1.6,2.36-1.6,7.57c0,3.68.66,6.37,2,8.1s3.4,2.54,6.26,2.54,4.79-.86,6.09-2.59,2-4.39,2-8c0-3.29-.54-5.8-1.6-7.53C375.17,429.43,373,428.4,369.9,428.36Z" transform="translate(-180.19 -290.51)"/><polygon class="cls-1" points="150.09 141.15 150.09 164.16 143.69 164.16 143.69 132.77 152.25 132.77 164.73 156.16 164.73 132.77 171.08 132.77 171.08 164.16 162.89 164.16 150.09 141.15"/><path class="cls-1" d="M319.63,423.28v5.6h-8.71a18.76,18.76,0,0,0-4.94.47,5,5,0,0,0-2.59,1.84,5.82,5.82,0,0,0-1,1.88,19.91,19.91,0,0,0-.44,3.2h17.65v5.6H302q.38,4,2.4,5.63t6.87,1.57h8.38v5.6h-8.71a40.61,40.61,0,0,1-6.21-.42,10.65,10.65,0,0,1-6.73-3.72q-3.59-4.32-3.58-11.72,0-8.19,5-12.75a10.05,10.05,0,0,1,3.69-2.17,18.41,18.41,0,0,1,5.25-.61Z" transform="translate(-180.19 -290.51)"/><path class="cls-1" d="M272.58,423.28h6.63v17.65c.1,2.23.19,3.7.29,4.43a3.56,3.56,0,0,0,2.07,2.94,16.89,16.89,0,0,0,6.12.77h6.4v5.6H287a33.09,33.09,0,0,1-7.29-.56,9,9,0,0,1-6.59-6.59,28.84,28.84,0,0,1-.52-6.59Z" transform="translate(-180.19 -290.51)"/><path class="cls-1" d="M253.28,436h15.39v18.63h-14a24.46,24.46,0,0,1-5.76-.54,10.38,10.38,0,0,1-3.89-1.9q-4.94-3.81-4.94-13.13A19.84,19.84,0,0,1,242.41,429a10.35,10.35,0,0,1,4.75-4.33,19.05,19.05,0,0,1,7.81-1.37h13.7v5.6H255.73c-2.8,0-4.82.61-6.08,1.84-1.5,1.44-2.26,4-2.26,7.76a21.08,21.08,0,0,0,.59,5.18,8,8,0,0,0,1.63,3.44,5,5,0,0,0,2.47,1.5,13.49,13.49,0,0,0,3.88.47H262v-7.43h-8.75Z" transform="translate(-180.19 -290.51)"/><path class="cls-1" d="M207.19,454.67l13-31.39h7.67l13,31.39H233L230,447.43H218.06L215,454.67ZM224,430.86l-4.47,11h8.94Z" transform="translate(-180.19 -290.51)"/><path class="cls-1" d="M205.42,423.28v5.6h-8.71a18.76,18.76,0,0,0-4.94.47,5,5,0,0,0-2.59,1.84,5.82,5.82,0,0,0-1,1.88,19.91,19.91,0,0,0-.44,3.2h17.65v5.6H187.77q.38,4,2.4,5.63t6.87,1.57h8.38v5.6h-8.71a40.42,40.42,0,0,1-6.21-.42,10.65,10.65,0,0,1-6.73-3.72q-3.59-4.32-3.58-11.72,0-8.19,5-12.75a10.17,10.17,0,0,1,3.7-2.17,18.41,18.41,0,0,1,5.25-.61Z" transform="translate(-180.19 -290.51)"/><path class="cls-2" d="M303.82,345.26l13.52,6.55A63,63,0,0,0,330.1,336c.68,13.24,3.56,22.5-13.64,33.54-11.54,7.41-29.62,15.11-38.43,22.8a20.76,20.76,0,0,0-3.26,3.49c-3.55-5.22-2.43-12.24-2.37-12.59h0c-5.12-2.13-8.08-4.19-9.55-7.05,2.48-4.58,3.9-7.34,8.37-11.25.36-.31.73-.63,1.12-.94A89.24,89.24,0,0,0,285,370.17c1.48-.74,3.13-1.49,4.95-2.28,2.63-1.13,5.16-2.27,7.61-3.44l-15.48-7.51c1.64-1,3.34-1.95,5.08-2.92L303,361.69a82.8,82.8,0,0,0,10.22-6.5L298.43,348l5.39-2.77Zm-17.06-16.68c-18.63,10.1-24.19,15.15-26.17,27.67-7.89-2.51-20.84-5.24-23.88-.92a4.56,4.56,0,0,0-.64,3.5,11.13,11.13,0,0,0-6.32,2.67,7,7,0,0,0-2.22,4.68c1.4-1.65,7.58-1.41,9.57-1.13,8.79,1.2,18,6.75,22.23,10.77l.11.1.14-.24c3.18-5.52,4.45-8.42,9.5-12.67,14.78-12.42,47.06-24.76,62.48-36.21,12-8.91,10.68-22.68,12.89-36.29-13.87,19.34-32.91,24.65-57.69,38.07Zm.58,59.77c11.84,4.29,20.52,8.45,23.42,17.19,1.8-7.9,5.43-19.73-6.22-26.82C298.61,381.9,292.5,385.12,287.34,388.35Z" transform="translate(-180.19 -290.51)"/></svg>